# xmcd CD database file
#
# Track frame offsets:
#	150
#	12368
#	26775
#	45927
#	64509
#	78029
#	94545
#	111149
#	134051
#	150496
#	168128
#	186060
#	200467
#	223244
#
# Disc length: 3240 seconds
#
# Revision: 0
# Processed by: cddbd v1.5.1PL0 Copyright (c) Steve Scherf et al.
# Submitted via: CDex 1.51
#
DISCID=ae0ca60e
DTITLE=Gwyneth Herbert and Will Rutter - First Songs
DYEAR=2003
DGENRE=Jazz
TTITLE0=Little Red Rooster
TTITLE1=Maybe Me
TTITLE2=Beguiling Eyes
TTITLE3=My Thief
TTITLE4=I Was Doin' Alright
TTITLE5=It's Getting Better
TTITLE6=Sweet Insomnia
TTITLE7=Calling You
TTITLE8=No Other Love
TTITLE9=Trains&Boats&Planes
TTITLE10=Don't Worry 'Bout Me
TTITLE11=There'll Be Some Changes Made
TTITLE12=The Ballad of the Sad Young Men
TTITLE13=Beguiling Eyes (FM Mix)
EXTD=YEAR: 2003
EXTT0=
EXTT1=
EXTT2=
EXTT3=
EXTT4=
EXTT5=
EXTT6=
EXTT7=
EXTT8=
EXTT9=
EXTT10=
EXTT11=
EXTT12=
EXTT13=
PLAYORDER=
